/* XPM */
static char * close_inactive_xpm[] = {
"30 30 15 1",
" 	c None",
".	c #008299",
"+	c #2A96A9",
"@	c #54ABBA",
"#	c #028299",
"$	c #018299",
"%	c #51A9B9",
"&	c #2D98AB",
"*	c #52AAB9",
"=	c #7FC0CB",
"-	c #56ACBB",
";	c #53AABA",
">	c #55ABBB",
",	c #53AAB9",
"'	c #57ACBB",
"..............................",
"..............................",
"..............................",
"..............................",
"..............................",
"..............................",
"..............................",
"..............................",
"..............................",
"..............................",
"..........+@#....$%&..........",
"..........*=-#..#-=*..........",
"..........$*=-#$;=>#..........",
"...........$*=-@=>#...........",
"............$,==-#............",
"............$;=='#............",
"...........$*=-,=>#...........",
"..........$*=-#$,=>#..........",
"..........*=-#..#-=*..........",
"..........+@#....#@+..........",
"..............................",
"..............................",
"..............................",
"..............................",
"..............................",
"..............................",
"..............................",
"..............................",
"..............................",
".............................."};
