/* XPM */
static char * maximize_inactive_xpm[] = {
"30 30 3 1",
" 	c None",
".	c #008299",
"+	c #80C0CC",
"..............................",
"..............................",
"..............................",
"..............................",
"..............................",
"..............................",
"..............................",
"..............................",
"..............................",
"..............................",
"..............++..............",
"..............++..............",
"..............++..............",
"..............++..............",
"..........++++++++++..........",
"..........++++++++++..........",
"..............++..............",
"..............++..............",
"..............++..............",
"..............++..............",
"..............................",
"..............................",
"..............................",
"..............................",
"..............................",
"..............................",
"..............................",
"..............................",
"..............................",
".............................."};
