/* XPM */
static char * maximize_pressed_xpm[] = {
"30 30 3 1",
" 	c None",
".	c #008299",
"+	c #B3D9E0",
"..............................",
"..............................",
"..............................",
"..............................",
"..............................",
"..............................",
"..............................",
"..............................",
"..............................",
"..............++..............",
"..............++..............",
"..............++..............",
"..............++..............",
"..........++++++++++..........",
"..........++++++++++..........",
"..............++..............",
"..............++..............",
"..............++..............",
"..............++..............",
"..............................",
"..............................",
"..............................",
"..............................",
"..............................",
"..............................",
"..............................",
"..............................",
"..............................",
"..............................",
".............................."};
