/* XPM */
static char * close_pressed_xpm[] = {
"30 30 19 1",
" 	c None",
".	c #008299",
"+	c #3B9EB0",
"@	c #76BBC7",
"#	c #04839A",
"$	c #028299",
"%	c #72B9C6",
"&	c #40A1B2",
"*	c #73BAC6",
"=	c #B3D9E0",
"-	c #79BDC9",
";	c #73BAC7",
">	c #75BBC7",
",	c #78BCC9",
"'	c #03839A",
")	c #76BBC8",
"!	c #7ABDC9",
"~	c #74BAC7",
"{	c #3C9FB1",
"..............................",
"..............................",
"..............................",
"..............................",
"..............................",
"..............................",
"..............................",
"..............................",
"..............................",
"..........+@#....$%&..........",
"..........*=-#..#-=;..........",
"..........$*=-#$>=,'..........",
"...........$*=-)=,'...........",
"............$>==-'............",
"............$>==!#............",
"...........$~=->=,'...........",
"..........$;=-#$>=,'..........",
"..........;=-#..#-=*..........",
"..........{)#....#@{..........",
"..............................",
"..............................",
"..............................",
"..............................",
"..............................",
"..............................",
"..............................",
"..............................",
"..............................",
"..............................",
".............................."};
