/* XPM */
static char * close_prelight_xpm[] = {
"30 30 22 1",
" 	c None",
".	c #008299",
"+	c #54ABBA",
"@	c #A8D4DB",
"#	c #05849B",
"$	c #03839A",
"%	c #A3D1DA",
"&	c #5BAEBD",
"*	c #A4D2D9",
"=	c #FFFFFF",
"-	c #ACD6DD",
";	c #A4D2DA",
">	c #ADD6DE",
",	c #A6D3DB",
"'	c #ABD5DD",
")	c #04839A",
"!	c #A8D4DC",
"~	c #A6D3DA",
"{	c #AED7DE",
"]	c #A5D2DB",
"^	c #A7D3DB",
"/	c #55ABBB",
"..............................",
"..............................",
"..............................",
"..............................",
"..............................",
"..............................",
"..............................",
"..............................",
"..............................",
"..........+@#....$%&..........",
"..........*=-#..#-=;..........",
"..........$*=>#$,=')..........",
"...........$*=>!=')...........",
"............$~==>)............",
"............$,=={#............",
"...........$]=>^=')...........",
"..........$;=-#$~=')..........",
"..........;=-#..#-=*..........",
"........../!#....#@/..........",
"..............................",
"..............................",
"..............................",
"..............................",
"..............................",
"..............................",
"..............................",
"..............................",
"..............................",
"..............................",
".............................."};
